<svg xmlns="http://www.w3.org/2000/svg" xmlns:xlink="http://www.w3.org/1999/xlink" width="500" zoomAndPan="magnify" viewBox="0 0 375 374.999991" height="500" preserveAspectRatio="xMidYMid meet" version="1.0"><defs><g/></defs><g fill="#4285f4" fill-opacity="1"><g transform="translate(24.338514, 228.691185)"><g><path d="M 68.34375 1.28125 C 64.601562 1.28125 61.347656 0.539062 58.578125 -0.9375 C 55.816406 -2.414062 53.382812 -4.632812 51.28125 -7.59375 C 49.570312 -5.019531 47.332031 -2.894531 44.5625 -1.21875 C 41.800781 0.445312 38.4375 1.28125 34.46875 1.28125 C 30.332031 1.28125 26.898438 0.382812 24.171875 -1.40625 C 21.453125 -3.195312 19.410156 -5.53125 18.046875 -8.40625 C 16.679688 -11.289062 16 -14.332031 16 -17.53125 C 16 -17.914062 16 -18.300781 16 -18.6875 L 13.78125 -15.1875 L 2.5625 -21.84375 C 7.082031 -27.6875 11.503906 -33.0625 15.828125 -37.96875 C 20.148438 -42.875 24.179688 -47.15625 27.921875 -50.8125 C 26.753906 -55.488281 24.457031 -57.828125 21.03125 -57.828125 C 19.15625 -57.828125 17.882812 -57.257812 17.21875 -56.125 C 16.5625 -55 16.234375 -53.695312 16.234375 -52.21875 C 16.234375 -51.363281 16.3125 -50.46875 16.46875 -49.53125 C 16.625 -48.601562 16.820312 -47.707031 17.0625 -46.84375 L 4.09375 -44.28125 C 3.625 -45.757812 3.269531 -47.253906 3.03125 -48.765625 C 2.800781 -50.285156 2.6875 -51.941406 2.6875 -53.734375 C 2.6875 -58.566406 4.242188 -62.363281 7.359375 -65.125 C 10.472656 -67.894531 14.953125 -69.28125 20.796875 -69.28125 C 25.078125 -69.28125 28.617188 -68.382812 31.421875 -66.59375 C 34.222656 -64.800781 36.445312 -62.347656 38.09375 -59.234375 C 44.082031 -63.671875 50.078125 -66.820312 56.078125 -68.6875 C 62.078125 -70.5625 68.8125 -71.5 76.28125 -71.5 C 85.476562 -71.5 93.226562 -69.878906 99.53125 -66.640625 C 105.84375 -63.410156 110.613281 -58.929688 113.84375 -53.203125 C 117.082031 -47.484375 118.703125 -40.804688 118.703125 -33.171875 C 118.703125 -26.085938 117.515625 -20.050781 115.140625 -15.0625 C 112.765625 -10.082031 109.492188 -6.285156 105.328125 -3.671875 C 101.160156 -1.066406 96.390625 0.234375 91.015625 0.234375 C 90.460938 0.234375 89.757812 0.234375 88.90625 0.234375 C 88.050781 0.234375 87.390625 0.15625 86.921875 0 L 87.390625 -12.15625 C 87.703125 -12.070312 88.050781 -12.03125 88.4375 -12.03125 C 88.820312 -12.03125 89.171875 -12.03125 89.484375 -12.03125 C 93.378906 -12.03125 96.515625 -12.945312 98.890625 -14.78125 C 101.265625 -16.613281 102.976562 -19.085938 104.03125 -22.203125 C 105.082031 -25.316406 105.609375 -28.742188 105.609375 -32.484375 C 105.609375 -40.347656 103.035156 -46.5 97.890625 -50.9375 C 92.753906 -55.375 85.203125 -57.59375 75.234375 -57.59375 C 70.097656 -57.59375 65.640625 -57.28125 61.859375 -56.65625 C 58.078125 -56.039062 54.6875 -55.144531 51.6875 -53.96875 C 48.695312 -52.800781 45.835938 -51.363281 43.109375 -49.65625 C 44.898438 -50.351562 46.882812 -50.953125 49.0625 -51.453125 C 51.25 -51.960938 53.507812 -52.21875 55.84375 -52.21875 C 66.75 -52.21875 74.96875 -49.800781 80.5 -44.96875 C 86.03125 -40.144531 88.796875 -33.453125 88.796875 -24.890625 C 88.796875 -16.941406 87.175781 -10.59375 83.9375 -5.84375 C 80.707031 -1.09375 75.507812 1.28125 68.34375 1.28125 Z M 56.890625 -27.21875 C 56.890625 -23.164062 57.585938 -19.972656 58.984375 -17.640625 C 60.390625 -15.304688 63.160156 -14.140625 67.296875 -14.140625 C 73.054688 -14.140625 75.9375 -17.679688 75.9375 -24.765625 C 75.9375 -29.753906 74.023438 -33.726562 70.203125 -36.6875 C 66.390625 -39.644531 60.59375 -41.125 52.8125 -41.125 C 48.445312 -41.125 44.664062 -40.925781 41.46875 -40.53125 C 38.28125 -40.144531 35.363281 -39.640625 32.71875 -39.015625 C 29.675781 -35.742188 26.597656 -32.160156 23.484375 -28.265625 L 27.578125 -28.265625 C 27.492188 -27.804688 27.429688 -27.398438 27.390625 -27.046875 C 27.359375 -26.691406 27.34375 -26.4375 27.34375 -26.28125 C 27.34375 -23.007812 27.75 -20.5 28.5625 -18.75 C 29.382812 -17 30.4375 -15.789062 31.71875 -15.125 C 33 -14.46875 34.378906 -14.140625 35.859375 -14.140625 C 38.742188 -14.140625 41.039062 -15.128906 42.75 -17.109375 C 44.46875 -19.097656 45.328125 -22.351562 45.328125 -26.875 L 45.328125 -28.15625 L 56.890625 -28.15625 Z M 56.890625 -27.21875 "/></g></g></g><g fill="#f4b400" fill-opacity="1"><g transform="translate(146.893193, 228.691185)"><g><path d="M 43.6875 1.28125 C 31 1.28125 21.1875 -1.421875 14.25 -6.828125 C 7.320312 -12.242188 3.859375 -19.703125 3.859375 -29.203125 C 3.859375 -38.003906 7.363281 -44.429688 14.375 -48.484375 C 17.019531 -49.960938 20.347656 -51.109375 24.359375 -51.921875 C 28.367188 -52.742188 33.566406 -53.15625 39.953125 -53.15625 L 41.125 -53.15625 C 40.96875 -55.019531 40.34375 -56.632812 39.25 -58 C 38.164062 -59.363281 36.375 -60.046875 33.875 -60.046875 C 31.695312 -60.046875 30.140625 -59.65625 29.203125 -58.875 C 28.273438 -58.101562 27.8125 -56.976562 27.8125 -55.5 C 27.8125 -54.875 27.847656 -54.328125 27.921875 -53.859375 L 15.078125 -52.8125 C 14.992188 -53.582031 14.910156 -54.4375 14.828125 -55.375 C 14.753906 -56.3125 14.71875 -57.09375 14.71875 -57.71875 C 14.71875 -62.3125 16.296875 -65.753906 19.453125 -68.046875 C 22.609375 -70.347656 26.988281 -71.5 32.59375 -71.5 C 40.070312 -71.5 45.539062 -69.257812 49 -64.78125 C 52.46875 -60.300781 54.203125 -53.9375 54.203125 -45.6875 L 54.203125 -41.703125 L 41.234375 -41.703125 C 37.191406 -41.703125 33.941406 -41.601562 31.484375 -41.40625 C 29.035156 -41.21875 27.066406 -40.890625 25.578125 -40.421875 C 24.097656 -39.953125 22.816406 -39.40625 21.734375 -38.78125 C 19.859375 -37.695312 18.550781 -36.335938 17.8125 -34.703125 C 17.070312 -33.066406 16.703125 -31.15625 16.703125 -28.96875 C 16.703125 -24.769531 18.804688 -21.328125 23.015625 -18.640625 C 27.222656 -15.953125 33.921875 -14.609375 43.109375 -14.609375 C 50.585938 -14.609375 56.796875 -15.441406 61.734375 -17.109375 C 66.679688 -18.785156 70.597656 -21.046875 73.484375 -23.890625 C 76.367188 -26.734375 78.410156 -29.984375 79.609375 -33.640625 C 80.816406 -37.304688 81.421875 -41.125 81.421875 -45.09375 C 81.421875 -50.78125 80.582031 -55.472656 78.90625 -59.171875 C 77.238281 -62.867188 74.847656 -65.925781 71.734375 -68.34375 C 68.148438 -71.070312 64.019531 -73 59.34375 -74.125 C 54.675781 -75.257812 48.679688 -75.828125 41.359375 -75.828125 L 35.40625 -75.828125 C 30.03125 -75.828125 25.820312 -76.175781 22.78125 -76.875 C 19.738281 -77.570312 17.207031 -78.78125 15.1875 -80.5 C 11.988281 -83.300781 10.390625 -87.347656 10.390625 -92.640625 C 10.390625 -96.222656 11.539062 -99.628906 13.84375 -102.859375 C 16.144531 -106.097656 19.960938 -108.726562 25.296875 -110.75 C 30.628906 -112.78125 37.890625 -113.796875 47.078125 -113.796875 C 55.804688 -113.796875 62.875 -113.113281 68.28125 -111.75 C 73.695312 -110.382812 77.84375 -108.570312 80.71875 -106.3125 C 83.601562 -104.050781 85.570312 -101.578125 86.625 -98.890625 C 87.675781 -96.203125 88.203125 -93.578125 88.203125 -91.015625 C 88.203125 -89.609375 88.066406 -88.007812 87.796875 -86.21875 C 87.523438 -84.425781 87.234375 -82.945312 86.921875 -81.78125 L 74.65625 -84 C 74.8125 -84.539062 74.96875 -85.203125 75.125 -85.984375 C 75.28125 -86.765625 75.359375 -87.582031 75.359375 -88.4375 C 75.359375 -90.070312 74.988281 -91.585938 74.25 -92.984375 C 73.507812 -94.390625 72.125 -95.617188 70.09375 -96.671875 C 68.070312 -97.722656 65.191406 -98.539062 61.453125 -99.125 C 57.710938 -99.707031 52.84375 -100 46.84375 -100 C 41.707031 -100 37.5625 -99.765625 34.40625 -99.296875 C 31.25 -98.835938 28.875 -98.253906 27.28125 -97.546875 C 25.6875 -96.847656 24.613281 -96.070312 24.0625 -95.21875 C 23.519531 -94.363281 23.25 -93.503906 23.25 -92.640625 C 23.25 -91.316406 23.753906 -90.304688 24.765625 -89.609375 C 25.390625 -89.210938 26.226562 -88.914062 27.28125 -88.71875 C 28.332031 -88.53125 29.945312 -88.4375 32.125 -88.4375 L 42.640625 -88.4375 C 52.378906 -88.4375 60.476562 -87.484375 66.9375 -85.578125 C 73.40625 -83.671875 78.859375 -80.535156 83.296875 -76.171875 C 86.960938 -72.671875 89.785156 -68.289062 91.765625 -63.03125 C 93.753906 -57.769531 94.75 -51.632812 94.75 -44.625 C 94.75 -35.59375 93.050781 -27.628906 89.65625 -20.734375 C 86.269531 -13.835938 80.835938 -8.441406 73.359375 -4.546875 C 65.890625 -0.660156 56 1.28125 43.6875 1.28125 Z M 43.6875 1.28125 "/></g></g></g><g fill="#0f9d58" fill-opacity="1"><g transform="translate(245.494753, 228.691185)"><g><path d="M 70.921875 1.28125 C 65.304688 1.28125 60.976562 0.40625 57.9375 -1.34375 C 54.90625 -3.09375 52.222656 -5.445312 49.890625 -8.40625 C 47.390625 -5.289062 44.582031 -2.894531 41.46875 -1.21875 C 38.351562 0.445312 34.109375 1.28125 28.734375 1.28125 C 24.066406 1.28125 19.84375 0.269531 16.0625 -1.75 C 12.28125 -3.78125 9.300781 -6.878906 7.125 -11.046875 C 4.945312 -15.210938 3.859375 -20.523438 3.859375 -26.984375 C 3.859375 -32.515625 5.160156 -37.519531 7.765625 -42 C 10.378906 -46.476562 14.296875 -50.0625 19.515625 -52.75 C 24.734375 -55.4375 31.234375 -56.78125 39.015625 -56.78125 C 40.179688 -56.78125 41.3125 -56.738281 42.40625 -56.65625 C 43.5 -56.582031 44.359375 -56.503906 44.984375 -56.421875 L 44.390625 -44.046875 C 43.847656 -44.117188 43.265625 -44.175781 42.640625 -44.21875 C 42.015625 -44.257812 41.195312 -44.28125 40.1875 -44.28125 C 32.550781 -44.28125 26.75 -42.816406 22.78125 -39.890625 C 18.8125 -36.972656 16.828125 -32.828125 16.828125 -27.453125 C 16.828125 -23.171875 17.914062 -19.878906 20.09375 -17.578125 C 22.269531 -15.285156 25.382812 -14.140625 29.4375 -14.140625 C 33.800781 -14.140625 37.25 -15.226562 39.78125 -17.40625 C 42.3125 -19.582031 43.578125 -22.851562 43.578125 -27.21875 L 43.578125 -28.15625 L 55.84375 -28.15625 L 55.84375 -27.34375 C 55.84375 -23.050781 57.050781 -19.773438 59.46875 -17.515625 C 61.882812 -15.265625 65.46875 -14.140625 70.21875 -14.140625 C 74.113281 -14.140625 77.207031 -15.1875 79.5 -17.28125 C 81.800781 -19.382812 82.953125 -22.425781 82.953125 -26.40625 C 82.953125 -29.4375 82.347656 -32.0625 81.140625 -34.28125 C 79.929688 -36.507812 77.804688 -38.242188 74.765625 -39.484375 C 72.742188 -40.265625 70.269531 -40.828125 67.34375 -41.171875 C 64.425781 -41.523438 61.019531 -41.703125 57.125 -41.703125 L 50.8125 -41.703125 L 50.8125 -46.375 C 50.8125 -53.9375 52.546875 -60.015625 56.015625 -64.609375 C 59.484375 -69.203125 64.992188 -71.5 72.546875 -71.5 C 78.078125 -71.5 82.421875 -70.390625 85.578125 -68.171875 C 88.734375 -65.953125 90.3125 -62.46875 90.3125 -57.71875 C 90.3125 -56.394531 90.113281 -54.640625 89.71875 -52.453125 L 77.109375 -53.625 C 77.179688 -54.007812 77.21875 -54.335938 77.21875 -54.609375 C 77.21875 -54.890625 77.21875 -55.1875 77.21875 -55.5 C 77.21875 -58.53125 75.3125 -60.046875 71.5 -60.046875 C 69.007812 -60.046875 67.160156 -59.363281 65.953125 -58 C 64.742188 -56.632812 64.0625 -55.019531 63.90625 -53.15625 C 67.488281 -53.15625 71.148438 -52.742188 74.890625 -51.921875 C 78.628906 -51.109375 82.070312 -49.75 85.21875 -47.84375 C 88.375 -45.9375 90.925781 -43.226562 92.875 -39.71875 C 94.820312 -36.21875 95.796875 -31.78125 95.796875 -26.40625 C 95.796875 -20.019531 94.6875 -14.78125 92.46875 -10.6875 C 90.25 -6.601562 87.25 -3.585938 83.46875 -1.640625 C 79.695312 0.304688 75.515625 1.28125 70.921875 1.28125 Z M 70.921875 1.28125 "/></g></g></g><g fill="#000000" fill-opacity="1"><g transform="translate(345.150996, 228.691185)"><g/></g></g></svg>